name Walk4.mot
datacolumns 19
datarows 12
range 1.62500000 1.68000000
endheader

                time	   L_ground_force_vx	   L_ground_force_vy	   L_ground_force_vz	   L_ground_force_px	   L_ground_force_py	   L_ground_force_pz	   R_ground_force_vx	   R_ground_force_vy	   R_ground_force_vz	   R_ground_force_px	   R_ground_force_py	   R_ground_force_pz	   L_ground_torque_x	   L_ground_torque_y	   L_ground_torque_z	   R_ground_torque_x	   R_ground_torque_y	   R_ground_torque_z	
          1.62500000	         -0.00000000	         -0.00000000	          0.00000000	          0.00000000	          0.00000000	          0.00000000	         23.12102112	        683.30371118	        -15.46420341	         -0.09331297	          0.00000000	          0.35323638	          0.00000000	          0.00000000	          0.00000000	          0.00000000	          0.66878170	          0.00000000	
          1.63000000	         -0.00000000	          0.00000000	          0.00000000	          0.00000000	          0.00000000	          0.00000000	         26.91273163	        694.89910796	        -15.01906367	         -0.09258374	          0.00000000	          0.35304762	          0.00000000	         -0.00000000	          0.00000000	          0.00000000	          0.65973227	          0.00000000	
          1.63500000	         -0.00000000	          0.00000000	         -0.00000000	          0.00000000	          0.00000000	          0.00000000	         30.25906230	        706.08500314	        -14.60359465	         -0.09188324	          0.00000000	          0.35302122	          0.00000000	         -0.00000000	          0.00000000	          0.00000000	          0.68954872	          0.00000000	
          1.64000000	          0.00000000	          0.00000000	         -0.00000000	         -0.00000000	          0.00000000	         -0.00000000	         33.85717515	        716.68387491	        -14.30518094	         -0.09126052	          0.00000000	          0.35294354	          0.00000000	         -0.00000000	          0.00000000	          0.00000000	          0.68043507	          0.00000000	
          1.64500000	          0.00000000	         -0.00000001	         -0.00000000	         -0.00000000	          0.00000000	         -0.00000000	         38.00682016	        726.69368520	        -14.22180265	         -0.09084798	          0.00000000	          0.35268985	          0.00000000	          0.00000000	          0.00000000	          0.00000000	          0.65264275	          0.00000000	
          1.65000000	          0.00000000	         -0.00000008	          0.00000000	         -0.00000000	          0.00000000	         -0.00000000	         42.60429808	        736.41234191	        -14.26122027	         -0.09048285	          0.00000000	          0.35227132	          0.00000000	          0.00000000	          0.00000000	          0.00000000	          0.72307455	          0.00000000	
          1.65500000	         -0.00000001	         -0.00000006	          0.00000001	          0.00000000	          0.00000000	          0.00000000	         47.55692337	        745.51004857	        -14.33443730	         -0.09011125	          0.00000000	          0.35199337	          0.00000000	          0.00000000	          0.00000000	          0.00000000	          0.81333000	          0.00000000	
          1.66000000	         -0.00000003	          0.00000053	          0.00000000	          0.00000000	          0.00000000	          0.00000000	         52.69826277	        753.44237875	        -14.35540186	         -0.08972876	          0.00000000	          0.35188755	          0.00000000	         -0.00000000	          0.00000000	          0.00000000	          0.91098239	          0.00000000	
          1.66500000	         -0.00000002	          0.00000195	         -0.00000007	          0.00000000	          0.00000000	          0.00000000	         58.00665488	        760.30573243	        -14.26980013	         -0.08928726	          0.00000000	          0.35180834	          0.00000000	         -0.00000000	          0.00000000	          0.00000000	          1.00421916	          0.00000000	
          1.67000000	          0.00000024	          0.00000017	         -0.00000018	         -0.00000001	          0.00000000	         -0.00000001	         63.50470842	        766.12197764	        -14.16672890	         -0.08895026	          0.00000000	          0.35165171	          0.00000000	         -0.00000000	          0.00000000	          0.00000000	          1.02897669	          0.00000000	
          1.67500000	          0.00000081	         -0.00001752	          0.00000016	         -0.00000005	          0.00000000	         -0.00000003	         69.08964092	        770.93980502	        -14.00621331	         -0.08879231	          0.00000000	          0.35130392	          0.00000000	          0.00000002	          0.00000000	          0.00000000	          1.08225724	          0.00000000	
          1.68000000	         -0.00000011	         -0.00004704	          0.00000210	          0.00000000	          0.00000000	          0.00000000	         74.69544897	        774.50038321	        -13.71929273	         -0.08865045	          0.00000000	          0.35111492	          0.00000000	          0.00000005	          0.00000000	          0.00000000	          1.21121864	          0.00000000	
